<?xml version="1.0" encoding="utf-8"?>
<!-- Generator: Adobe Illustrator 16.0.0, SVG Export Plug-In . SVG Version: 6.00 Build 0)  -->
<!DOCTYPE svg PUBLIC "-//W3C//DTD SVG 1.1//EN" "http://www.w3.org/Graphics/SVG/1.1/DTD/svg11.dtd">
<svg version="1.1" id="Layer_1" xmlns="http://www.w3.org/2000/svg" xmlns:xlink="http://www.w3.org/1999/xlink" x="0px" y="0px"
	 width="158.74px" height="246.61px" viewBox="0 0 158.74 246.61" enable-background="new 0 0 158.74 246.61" xml:space="preserve">
<path fill="#FFFFFF" d="M158.74,234.61c0,6.627-5.373,12-12,12H12c-6.628,0-12-5.373-12-12V12C0,5.373,5.372,0,12,0h134.74
	c6.627,0,12,5.373,12,12V234.61z"/>
<g>
	<g>
		<g>
			<defs>
				<polygon id="SVGID_1_" points="79.37,114.014 19.094,89.451 79.37,64.888 139.646,89.451 				"/>
			</defs>
			<clipPath id="SVGID_2_">
				<use xlink:href="#SVGID_1_"  overflow="visible"/>
			</clipPath>
			<g clip-path="url(#SVGID_2_)">
				
					<line fill="none" stroke="#5E2D9A" stroke-width="2" stroke-miterlimit="10" x1="26.183" y1="53.861" x2="26.183" y2="136.167"/>
				
					<line fill="none" stroke="#5E2D9A" stroke-width="2" stroke-miterlimit="10" x1="31.502" y1="53.861" x2="31.502" y2="136.167"/>
				<line fill="none" stroke="#5E2D9A" stroke-width="2" stroke-miterlimit="10" x1="36.82" y1="53.861" x2="36.82" y2="136.167"/>
				<line fill="none" stroke="#5E2D9A" stroke-width="2" stroke-miterlimit="10" x1="42.14" y1="53.861" x2="42.14" y2="136.167"/>
				
					<line fill="none" stroke="#5E2D9A" stroke-width="2" stroke-miterlimit="10" x1="47.458" y1="53.861" x2="47.458" y2="136.167"/>
				
					<line fill="none" stroke="#5E2D9A" stroke-width="2" stroke-miterlimit="10" x1="52.777" y1="53.861" x2="52.777" y2="136.167"/>
				
					<line fill="none" stroke="#5E2D9A" stroke-width="2" stroke-miterlimit="10" x1="58.096" y1="53.861" x2="58.096" y2="136.167"/>
				
					<line fill="none" stroke="#5E2D9A" stroke-width="2" stroke-miterlimit="10" x1="68.733" y1="53.861" x2="68.733" y2="136.167"/>
				
					<line fill="none" stroke="#5E2D9A" stroke-width="2" stroke-miterlimit="10" x1="63.414" y1="53.861" x2="63.414" y2="136.167"/>
				
					<line fill="none" stroke="#5E2D9A" stroke-width="2" stroke-miterlimit="10" x1="74.052" y1="53.861" x2="74.052" y2="136.167"/>
				
					<line fill="none" stroke="#5E2D9A" stroke-width="2" stroke-miterlimit="10" x1="79.371" y1="53.861" x2="79.371" y2="136.167"/>
				
					<line fill="none" stroke="#5E2D9A" stroke-width="2" stroke-miterlimit="10" x1="84.689" y1="53.861" x2="84.689" y2="136.167"/>
				
					<line fill="none" stroke="#5E2D9A" stroke-width="2" stroke-miterlimit="10" x1="90.009" y1="53.861" x2="90.009" y2="136.167"/>
				
					<line fill="none" stroke="#5E2D9A" stroke-width="2" stroke-miterlimit="10" x1="95.327" y1="53.861" x2="95.327" y2="136.167"/>
				
					<line fill="none" stroke="#5E2D9A" stroke-width="2" stroke-miterlimit="10" x1="100.645" y1="53.861" x2="100.645" y2="136.167"/>
				
					<line fill="none" stroke="#5E2D9A" stroke-width="2" stroke-miterlimit="10" x1="111.283" y1="53.861" x2="111.283" y2="136.167"/>
				
					<line fill="none" stroke="#5E2D9A" stroke-width="2" stroke-miterlimit="10" x1="105.964" y1="53.861" x2="105.964" y2="136.167"/>
				
					<line fill="none" stroke="#5E2D9A" stroke-width="2" stroke-miterlimit="10" x1="116.603" y1="53.861" x2="116.603" y2="136.167"/>
				
					<line fill="none" stroke="#5E2D9A" stroke-width="2" stroke-miterlimit="10" x1="121.922" y1="53.861" x2="121.922" y2="136.167"/>
				
					<line fill="none" stroke="#5E2D9A" stroke-width="2" stroke-miterlimit="10" x1="127.238" y1="53.861" x2="127.238" y2="136.167"/>
				
					<line fill="none" stroke="#5E2D9A" stroke-width="2" stroke-miterlimit="10" x1="132.558" y1="53.861" x2="132.558" y2="136.167"/>
			</g>
			<use xlink:href="#SVGID_1_"  overflow="visible" fill="none" stroke="#5E2D9A" stroke-miterlimit="10"/>
		</g>
		<polygon fill="none" stroke="#5E2D9A" stroke-width="3" stroke-miterlimit="10" points="79.37,114.014 19.094,89.451 
			79.37,64.888 139.646,89.451 		"/>
	</g>
	<g>
		<g>
			<defs>
				<polygon id="SVGID_3_" points="79.37,181.722 19.094,157.159 79.37,132.597 139.646,157.159 				"/>
			</defs>
			<clipPath id="SVGID_4_">
				<use xlink:href="#SVGID_3_"  overflow="visible"/>
			</clipPath>
			<g clip-path="url(#SVGID_4_)">
				
					<line fill="none" stroke="#5E2D9A" stroke-width="2" stroke-miterlimit="10" x1="26.183" y1="121.569" x2="26.183" y2="203.874"/>
				
					<line fill="none" stroke="#5E2D9A" stroke-width="2" stroke-miterlimit="10" x1="31.502" y1="121.569" x2="31.502" y2="203.874"/>
				<line fill="none" stroke="#5E2D9A" stroke-width="2" stroke-miterlimit="10" x1="36.82" y1="121.569" x2="36.82" y2="203.874"/>
				<line fill="none" stroke="#5E2D9A" stroke-width="2" stroke-miterlimit="10" x1="42.14" y1="121.569" x2="42.14" y2="203.874"/>
				
					<line fill="none" stroke="#5E2D9A" stroke-width="2" stroke-miterlimit="10" x1="47.458" y1="121.569" x2="47.458" y2="203.874"/>
				
					<line fill="none" stroke="#5E2D9A" stroke-width="2" stroke-miterlimit="10" x1="52.777" y1="121.569" x2="52.777" y2="203.874"/>
				
					<line fill="none" stroke="#5E2D9A" stroke-width="2" stroke-miterlimit="10" x1="58.096" y1="121.569" x2="58.096" y2="203.874"/>
				
					<line fill="none" stroke="#5E2D9A" stroke-width="2" stroke-miterlimit="10" x1="68.733" y1="121.569" x2="68.733" y2="203.874"/>
				
					<line fill="none" stroke="#5E2D9A" stroke-width="2" stroke-miterlimit="10" x1="63.414" y1="121.569" x2="63.414" y2="203.874"/>
				
					<line fill="none" stroke="#5E2D9A" stroke-width="2" stroke-miterlimit="10" x1="74.052" y1="121.569" x2="74.052" y2="203.874"/>
				
					<line fill="none" stroke="#5E2D9A" stroke-width="2" stroke-miterlimit="10" x1="79.371" y1="121.569" x2="79.371" y2="203.874"/>
				
					<line fill="none" stroke="#5E2D9A" stroke-width="2" stroke-miterlimit="10" x1="84.689" y1="121.569" x2="84.689" y2="203.874"/>
				
					<line fill="none" stroke="#5E2D9A" stroke-width="2" stroke-miterlimit="10" x1="90.009" y1="121.569" x2="90.009" y2="203.874"/>
				
					<line fill="none" stroke="#5E2D9A" stroke-width="2" stroke-miterlimit="10" x1="95.327" y1="121.569" x2="95.327" y2="203.874"/>
				
					<line fill="none" stroke="#5E2D9A" stroke-width="2" stroke-miterlimit="10" x1="100.645" y1="121.569" x2="100.645" y2="203.874"/>
				
					<line fill="none" stroke="#5E2D9A" stroke-width="2" stroke-miterlimit="10" x1="111.283" y1="121.569" x2="111.283" y2="203.874"/>
				
					<line fill="none" stroke="#5E2D9A" stroke-width="2" stroke-miterlimit="10" x1="105.964" y1="121.569" x2="105.964" y2="203.874"/>
				
					<line fill="none" stroke="#5E2D9A" stroke-width="2" stroke-miterlimit="10" x1="116.603" y1="121.569" x2="116.603" y2="203.874"/>
				
					<line fill="none" stroke="#5E2D9A" stroke-width="2" stroke-miterlimit="10" x1="121.922" y1="121.569" x2="121.922" y2="203.874"/>
				
					<line fill="none" stroke="#5E2D9A" stroke-width="2" stroke-miterlimit="10" x1="127.238" y1="121.569" x2="127.238" y2="203.874"/>
				
					<line fill="none" stroke="#5E2D9A" stroke-width="2" stroke-miterlimit="10" x1="132.558" y1="121.569" x2="132.558" y2="203.874"/>
			</g>
			<use xlink:href="#SVGID_3_"  overflow="visible" fill="none" stroke="#5E2D9A" stroke-miterlimit="10"/>
		</g>
		<polygon fill="none" stroke="#5E2D9A" stroke-width="3" stroke-miterlimit="10" points="79.37,181.722 19.094,157.159 
			79.37,132.597 139.646,157.159 		"/>
	</g>
</g>
</svg>
