<?xml version="1.0" encoding="utf-8"?>
<!-- Generator: Adobe Illustrator 16.0.0, SVG Export Plug-In . SVG Version: 6.00 Build 0)  -->
<!DOCTYPE svg PUBLIC "-//W3C//DTD SVG 1.1//EN" "http://www.w3.org/Graphics/SVG/1.1/DTD/svg11.dtd">
<svg version="1.1" id="Layer_1" xmlns="http://www.w3.org/2000/svg" xmlns:xlink="http://www.w3.org/1999/xlink" x="0px" y="0px"
	 width="158.74px" height="246.61px" viewBox="0 0 158.74 246.61" enable-background="new 0 0 158.74 246.61" xml:space="preserve">
<path fill="#FFFFFF" d="M158.74,234.61c0,6.627-5.373,12-12,12H12c-6.628,0-12-5.373-12-12V12C0,5.373,5.372,0,12,0h134.74
	c6.627,0,12,5.373,12,12V234.61z"/>
<g>
	<path fill-rule="evenodd" clip-rule="evenodd" fill="none" stroke="#5E2D9A" stroke-width="3" stroke-miterlimit="10" d="
		M60.103,67.654c6.417-0.482,13.037-0.208,18.645,2.336c12.372,5.611,23.324,2.946,34.216-3.152
		c13.278-7.434,22.174-3.319,23.68,10.861c2.475,23.256-15.586,38.078-41.033,33.625c-2.655-0.464-5.406-0.921-7.825-1.932
		c-17.299-7.223-33.484-7.068-49.271,4.15c-6.925,4.921-13.775,1.069-15.903-7.783c-4.192-17.436,9.94-35.17,30.247-37.854
		C55.234,67.591,57.686,67.727,60.103,67.654z"/>
	<path fill-rule="evenodd" clip-rule="evenodd" fill="none" stroke="#5E2D9A" stroke-width="3" stroke-miterlimit="10" d="
		M60.103,135.361c6.417-0.481,13.037-0.207,18.645,2.336c12.372,5.611,23.324,2.946,34.216-3.152
		c13.278-7.434,22.174-3.318,23.68,10.861c2.475,23.257-15.586,38.078-41.033,33.626c-2.655-0.464-5.406-0.921-7.825-1.932
		c-17.299-7.224-33.484-7.067-49.271,4.149c-6.925,4.922-13.775,1.069-15.903-7.782c-4.192-17.437,9.94-35.171,30.247-37.854
		C55.234,135.299,57.686,135.435,60.103,135.361z"/>
</g>
</svg>
