<?xml version="1.0" encoding="utf-8"?>
<!-- Generator: Adobe Illustrator 16.0.0, SVG Export Plug-In . SVG Version: 6.00 Build 0)  -->
<!DOCTYPE svg PUBLIC "-//W3C//DTD SVG 1.1//EN" "http://www.w3.org/Graphics/SVG/1.1/DTD/svg11.dtd">
<svg version="1.1" id="Layer_1" xmlns="http://www.w3.org/2000/svg" xmlns:xlink="http://www.w3.org/1999/xlink" x="0px" y="0px"
	 width="158.74px" height="246.61px" viewBox="0 0 158.74 246.61" enable-background="new 0 0 158.74 246.61" xml:space="preserve">
<path fill="#FFFFFF" d="M158.74,234.61c0,6.627-5.373,12-12,12H12c-6.628,0-12-5.373-12-12V12C0,5.373,5.372,0,12,0h134.74
	c6.627,0,12,5.373,12,12V234.61z"/>
<g>
	<g>
		<g>
			<defs>
				<path id="SVGID_1_" d="M60.803,39.449c6.429-0.289,13.038,0.185,18.566,2.896c12.197,5.981,23.225,3.647,34.295-2.12
					c13.496-7.03,22.264-2.649,23.342,11.569c1.773,23.32-16.726,37.591-42.027,32.375c-2.641-0.544-5.376-1.083-7.764-2.167
					c-17.073-7.741-33.256-8.073-49.373,2.664c-7.07,4.71-13.802,0.654-15.662-8.258c-3.665-17.555,10.996-34.855,31.374-36.926
					C55.939,39.24,58.385,39.449,60.803,39.449z"/>
			</defs>
			<clipPath id="SVGID_2_">
				<use xlink:href="#SVGID_1_"  overflow="visible"/>
			</clipPath>
			<g clip-path="url(#SVGID_2_)">
				<line fill="none" stroke="#5E2D9A" stroke-width="2" stroke-miterlimit="10" x1="19.314" y1="26.2" x2="19.314" y2="108.505"/>
				<line fill="none" stroke="#5E2D9A" stroke-width="2" stroke-miterlimit="10" x1="25.215" y1="26.2" x2="25.215" y2="108.505"/>
				<line fill="none" stroke="#5E2D9A" stroke-width="2" stroke-miterlimit="10" x1="31.114" y1="26.2" x2="31.114" y2="108.505"/>
				<line fill="none" stroke="#5E2D9A" stroke-width="2" stroke-miterlimit="10" x1="37.015" y1="26.2" x2="37.015" y2="108.505"/>
				<line fill="none" stroke="#5E2D9A" stroke-width="2" stroke-miterlimit="10" x1="42.914" y1="26.2" x2="42.914" y2="108.505"/>
				<line fill="none" stroke="#5E2D9A" stroke-width="2" stroke-miterlimit="10" x1="48.814" y1="26.2" x2="48.814" y2="108.505"/>
				<line fill="none" stroke="#5E2D9A" stroke-width="2" stroke-miterlimit="10" x1="54.715" y1="26.2" x2="54.715" y2="108.505"/>
				<line fill="none" stroke="#5E2D9A" stroke-width="2" stroke-miterlimit="10" x1="66.515" y1="26.2" x2="66.515" y2="108.505"/>
				<line fill="none" stroke="#5E2D9A" stroke-width="2" stroke-miterlimit="10" x1="60.614" y1="26.2" x2="60.614" y2="108.505"/>
				<line fill="none" stroke="#5E2D9A" stroke-width="2" stroke-miterlimit="10" x1="72.414" y1="26.2" x2="72.414" y2="108.505"/>
				<line fill="none" stroke="#5E2D9A" stroke-width="2" stroke-miterlimit="10" x1="78.314" y1="26.2" x2="78.314" y2="108.505"/>
				<line fill="none" stroke="#5E2D9A" stroke-width="2" stroke-miterlimit="10" x1="84.215" y1="26.2" x2="84.215" y2="108.505"/>
				<line fill="none" stroke="#5E2D9A" stroke-width="2" stroke-miterlimit="10" x1="90.114" y1="26.2" x2="90.114" y2="108.505"/>
				<line fill="none" stroke="#5E2D9A" stroke-width="2" stroke-miterlimit="10" x1="96.015" y1="26.2" x2="96.015" y2="108.505"/>
				
					<line fill="none" stroke="#5E2D9A" stroke-width="2" stroke-miterlimit="10" x1="101.914" y1="26.2" x2="101.914" y2="108.505"/>
				
					<line fill="none" stroke="#5E2D9A" stroke-width="2" stroke-miterlimit="10" x1="113.715" y1="26.2" x2="113.715" y2="108.505"/>
				
					<line fill="none" stroke="#5E2D9A" stroke-width="2" stroke-miterlimit="10" x1="107.814" y1="26.2" x2="107.814" y2="108.505"/>
				
					<line fill="none" stroke="#5E2D9A" stroke-width="2" stroke-miterlimit="10" x1="119.614" y1="26.2" x2="119.614" y2="108.505"/>
				
					<line fill="none" stroke="#5E2D9A" stroke-width="2" stroke-miterlimit="10" x1="125.515" y1="26.2" x2="125.515" y2="108.505"/>
				
					<line fill="none" stroke="#5E2D9A" stroke-width="2" stroke-miterlimit="10" x1="131.414" y1="26.2" x2="131.414" y2="108.505"/>
				
					<line fill="none" stroke="#5E2D9A" stroke-width="2" stroke-miterlimit="10" x1="137.314" y1="26.2" x2="137.314" y2="108.505"/>
			</g>
			
				<use xlink:href="#SVGID_1_"  overflow="visible" fill-rule="evenodd" clip-rule="evenodd" fill="none" stroke="#5E2D9A" stroke-miterlimit="10"/>
		</g>
		<path fill-rule="evenodd" clip-rule="evenodd" fill="none" stroke="#5E2D9A" stroke-width="3" stroke-miterlimit="10" d="
			M60.803,39.449c6.429-0.289,13.038,0.185,18.566,2.896c12.197,5.981,23.225,3.647,34.295-2.12
			c13.496-7.03,22.264-2.649,23.342,11.569c1.773,23.32-16.726,37.591-42.027,32.375c-2.641-0.544-5.376-1.083-7.764-2.167
			c-17.073-7.741-33.256-8.073-49.373,2.664c-7.07,4.71-13.802,0.654-15.662-8.258c-3.665-17.555,10.996-34.855,31.374-36.926
			C55.939,39.24,58.385,39.449,60.803,39.449z"/>
	</g>
	<g>
		<g>
			<defs>
				<path id="SVGID_3_" d="M60.803,100.965c6.429-0.289,13.038,0.185,18.566,2.896c12.197,5.981,23.225,3.647,34.295-2.12
					c13.496-7.03,22.264-2.649,23.342,11.569c1.773,23.321-16.726,37.591-42.027,32.375c-2.641-0.544-5.376-1.083-7.764-2.167
					c-17.073-7.74-33.256-8.072-49.373,2.664c-7.07,4.711-13.802,0.654-15.662-8.258c-3.665-17.555,10.996-34.855,31.374-36.926
					C55.939,100.756,58.385,100.965,60.803,100.965z"/>
			</defs>
			<clipPath id="SVGID_4_">
				<use xlink:href="#SVGID_3_"  overflow="visible"/>
			</clipPath>
			<g clip-path="url(#SVGID_4_)">
				
					<line fill="none" stroke="#5E2D9A" stroke-width="2" stroke-miterlimit="10" x1="19.314" y1="87.716" x2="19.314" y2="170.021"/>
				
					<line fill="none" stroke="#5E2D9A" stroke-width="2" stroke-miterlimit="10" x1="25.215" y1="87.716" x2="25.215" y2="170.021"/>
				
					<line fill="none" stroke="#5E2D9A" stroke-width="2" stroke-miterlimit="10" x1="31.114" y1="87.716" x2="31.114" y2="170.021"/>
				
					<line fill="none" stroke="#5E2D9A" stroke-width="2" stroke-miterlimit="10" x1="37.015" y1="87.716" x2="37.015" y2="170.021"/>
				
					<line fill="none" stroke="#5E2D9A" stroke-width="2" stroke-miterlimit="10" x1="42.914" y1="87.716" x2="42.914" y2="170.021"/>
				
					<line fill="none" stroke="#5E2D9A" stroke-width="2" stroke-miterlimit="10" x1="48.814" y1="87.716" x2="48.814" y2="170.021"/>
				
					<line fill="none" stroke="#5E2D9A" stroke-width="2" stroke-miterlimit="10" x1="54.715" y1="87.716" x2="54.715" y2="170.021"/>
				
					<line fill="none" stroke="#5E2D9A" stroke-width="2" stroke-miterlimit="10" x1="66.515" y1="87.716" x2="66.515" y2="170.021"/>
				
					<line fill="none" stroke="#5E2D9A" stroke-width="2" stroke-miterlimit="10" x1="60.614" y1="87.716" x2="60.614" y2="170.021"/>
				
					<line fill="none" stroke="#5E2D9A" stroke-width="2" stroke-miterlimit="10" x1="72.414" y1="87.716" x2="72.414" y2="170.021"/>
				
					<line fill="none" stroke="#5E2D9A" stroke-width="2" stroke-miterlimit="10" x1="78.314" y1="87.716" x2="78.314" y2="170.021"/>
				
					<line fill="none" stroke="#5E2D9A" stroke-width="2" stroke-miterlimit="10" x1="84.215" y1="87.716" x2="84.215" y2="170.021"/>
				
					<line fill="none" stroke="#5E2D9A" stroke-width="2" stroke-miterlimit="10" x1="90.114" y1="87.716" x2="90.114" y2="170.021"/>
				
					<line fill="none" stroke="#5E2D9A" stroke-width="2" stroke-miterlimit="10" x1="96.015" y1="87.716" x2="96.015" y2="170.021"/>
				
					<line fill="none" stroke="#5E2D9A" stroke-width="2" stroke-miterlimit="10" x1="101.914" y1="87.716" x2="101.914" y2="170.021"/>
				
					<line fill="none" stroke="#5E2D9A" stroke-width="2" stroke-miterlimit="10" x1="113.715" y1="87.716" x2="113.715" y2="170.021"/>
				
					<line fill="none" stroke="#5E2D9A" stroke-width="2" stroke-miterlimit="10" x1="107.814" y1="87.716" x2="107.814" y2="170.021"/>
				
					<line fill="none" stroke="#5E2D9A" stroke-width="2" stroke-miterlimit="10" x1="119.614" y1="87.716" x2="119.614" y2="170.021"/>
				
					<line fill="none" stroke="#5E2D9A" stroke-width="2" stroke-miterlimit="10" x1="125.515" y1="87.716" x2="125.515" y2="170.021"/>
				
					<line fill="none" stroke="#5E2D9A" stroke-width="2" stroke-miterlimit="10" x1="131.414" y1="87.716" x2="131.414" y2="170.021"/>
				
					<line fill="none" stroke="#5E2D9A" stroke-width="2" stroke-miterlimit="10" x1="137.314" y1="87.716" x2="137.314" y2="170.021"/>
			</g>
			
				<use xlink:href="#SVGID_3_"  overflow="visible" fill-rule="evenodd" clip-rule="evenodd" fill="none" stroke="#5E2D9A" stroke-miterlimit="10"/>
		</g>
		<path fill-rule="evenodd" clip-rule="evenodd" fill="none" stroke="#5E2D9A" stroke-width="3" stroke-miterlimit="10" d="
			M60.803,100.965c6.429-0.289,13.038,0.185,18.566,2.896c12.197,5.981,23.225,3.647,34.295-2.12
			c13.496-7.03,22.264-2.649,23.342,11.569c1.773,23.321-16.726,37.591-42.027,32.375c-2.641-0.544-5.376-1.083-7.764-2.167
			c-17.073-7.74-33.256-8.072-49.373,2.664c-7.07,4.711-13.802,0.654-15.662-8.258c-3.665-17.555,10.996-34.855,31.374-36.926
			C55.939,100.756,58.385,100.965,60.803,100.965z"/>
	</g>
	<g>
		<g>
			<defs>
				<path id="SVGID_5_" d="M60.803,162.481c6.429-0.289,13.038,0.185,18.566,2.896c12.197,5.98,23.225,3.646,34.295-2.12
					c13.496-7.03,22.264-2.649,23.342,11.569c1.773,23.32-16.726,37.592-42.027,32.375c-2.641-0.545-5.376-1.084-7.764-2.167
					c-17.073-7.741-33.256-8.073-49.373,2.663c-7.07,4.711-13.802,0.654-15.662-8.258c-3.665-17.555,10.996-34.855,31.374-36.926
					C55.939,162.272,58.385,162.481,60.803,162.481z"/>
			</defs>
			<clipPath id="SVGID_6_">
				<use xlink:href="#SVGID_5_"  overflow="visible"/>
			</clipPath>
			<g clip-path="url(#SVGID_6_)">
				
					<line fill="none" stroke="#5E2D9A" stroke-width="2" stroke-miterlimit="10" x1="19.314" y1="149.231" x2="19.314" y2="231.537"/>
				
					<line fill="none" stroke="#5E2D9A" stroke-width="2" stroke-miterlimit="10" x1="25.215" y1="149.231" x2="25.215" y2="231.537"/>
				
					<line fill="none" stroke="#5E2D9A" stroke-width="2" stroke-miterlimit="10" x1="31.114" y1="149.231" x2="31.114" y2="231.537"/>
				
					<line fill="none" stroke="#5E2D9A" stroke-width="2" stroke-miterlimit="10" x1="37.015" y1="149.231" x2="37.015" y2="231.537"/>
				
					<line fill="none" stroke="#5E2D9A" stroke-width="2" stroke-miterlimit="10" x1="42.914" y1="149.231" x2="42.914" y2="231.537"/>
				
					<line fill="none" stroke="#5E2D9A" stroke-width="2" stroke-miterlimit="10" x1="48.814" y1="149.231" x2="48.814" y2="231.537"/>
				
					<line fill="none" stroke="#5E2D9A" stroke-width="2" stroke-miterlimit="10" x1="54.715" y1="149.231" x2="54.715" y2="231.537"/>
				
					<line fill="none" stroke="#5E2D9A" stroke-width="2" stroke-miterlimit="10" x1="66.515" y1="149.231" x2="66.515" y2="231.537"/>
				
					<line fill="none" stroke="#5E2D9A" stroke-width="2" stroke-miterlimit="10" x1="60.614" y1="149.231" x2="60.614" y2="231.537"/>
				
					<line fill="none" stroke="#5E2D9A" stroke-width="2" stroke-miterlimit="10" x1="72.414" y1="149.231" x2="72.414" y2="231.537"/>
				
					<line fill="none" stroke="#5E2D9A" stroke-width="2" stroke-miterlimit="10" x1="78.314" y1="149.231" x2="78.314" y2="231.537"/>
				
					<line fill="none" stroke="#5E2D9A" stroke-width="2" stroke-miterlimit="10" x1="84.215" y1="149.231" x2="84.215" y2="231.537"/>
				
					<line fill="none" stroke="#5E2D9A" stroke-width="2" stroke-miterlimit="10" x1="90.114" y1="149.231" x2="90.114" y2="231.537"/>
				
					<line fill="none" stroke="#5E2D9A" stroke-width="2" stroke-miterlimit="10" x1="96.015" y1="149.231" x2="96.015" y2="231.537"/>
				
					<line fill="none" stroke="#5E2D9A" stroke-width="2" stroke-miterlimit="10" x1="101.914" y1="149.231" x2="101.914" y2="231.537"/>
				
					<line fill="none" stroke="#5E2D9A" stroke-width="2" stroke-miterlimit="10" x1="113.715" y1="149.231" x2="113.715" y2="231.537"/>
				
					<line fill="none" stroke="#5E2D9A" stroke-width="2" stroke-miterlimit="10" x1="107.814" y1="149.231" x2="107.814" y2="231.537"/>
				
					<line fill="none" stroke="#5E2D9A" stroke-width="2" stroke-miterlimit="10" x1="119.614" y1="149.231" x2="119.614" y2="231.537"/>
				
					<line fill="none" stroke="#5E2D9A" stroke-width="2" stroke-miterlimit="10" x1="125.515" y1="149.231" x2="125.515" y2="231.537"/>
				
					<line fill="none" stroke="#5E2D9A" stroke-width="2" stroke-miterlimit="10" x1="131.414" y1="149.231" x2="131.414" y2="231.537"/>
				
					<line fill="none" stroke="#5E2D9A" stroke-width="2" stroke-miterlimit="10" x1="137.314" y1="149.231" x2="137.314" y2="231.537"/>
			</g>
			
				<use xlink:href="#SVGID_5_"  overflow="visible" fill-rule="evenodd" clip-rule="evenodd" fill="none" stroke="#5E2D9A" stroke-miterlimit="10"/>
		</g>
		<path fill-rule="evenodd" clip-rule="evenodd" fill="none" stroke="#5E2D9A" stroke-width="3" stroke-miterlimit="10" d="
			M60.803,162.481c6.429-0.289,13.038,0.185,18.566,2.896c12.197,5.98,23.225,3.646,34.295-2.12
			c13.496-7.03,22.264-2.649,23.342,11.569c1.773,23.32-16.726,37.592-42.027,32.375c-2.641-0.545-5.376-1.084-7.764-2.167
			c-17.073-7.741-33.256-8.073-49.373,2.663c-7.07,4.711-13.802,0.654-15.662-8.258c-3.665-17.555,10.996-34.855,31.374-36.926
			C55.939,162.272,58.385,162.481,60.803,162.481z"/>
	</g>
</g>
</svg>
