<?xml version="1.0" encoding="utf-8"?>
<!-- Generator: Adobe Illustrator 16.0.0, SVG Export Plug-In . SVG Version: 6.00 Build 0)  -->
<!DOCTYPE svg PUBLIC "-//W3C//DTD SVG 1.1//EN" "http://www.w3.org/Graphics/SVG/1.1/DTD/svg11.dtd">
<svg version="1.1" id="Layer_1" xmlns="http://www.w3.org/2000/svg" xmlns:xlink="http://www.w3.org/1999/xlink" x="0px" y="0px"
	 width="158.74px" height="246.61px" viewBox="0 0 158.74 246.61" enable-background="new 0 0 158.74 246.61" xml:space="preserve">
<path fill="#FFFFFF" d="M158.74,234.61c0,6.627-5.373,12-12,12H12c-6.628,0-12-5.373-12-12V12C0,5.372,5.372,0,12,0h134.74
	c6.627,0,12,5.373,12,12V234.61z"/>
<g>
	<path fill="#F43A45" d="M46.075,64.888h66.59c13.564,0,24.563,10.997,24.563,24.563l0,0c0,13.566-10.998,24.563-24.563,24.563
		h-66.59c-13.564,0-24.563-10.997-24.563-24.563l0,0C21.513,75.885,32.511,64.888,46.075,64.888z"/>
	<path fill="#F43A45" d="M46.075,132.596h66.59c13.564,0,24.563,10.997,24.563,24.563l0,0c0,13.566-10.998,24.563-24.563,24.563
		h-66.59c-13.564,0-24.563-10.997-24.563-24.563l0,0C21.513,143.593,32.511,132.596,46.075,132.596z"/>
</g>
</svg>
