<?xml version="1.0" encoding="utf-8"?>
<!-- Generator: Adobe Illustrator 16.0.0, SVG Export Plug-In . SVG Version: 6.00 Build 0)  -->
<!DOCTYPE svg PUBLIC "-//W3C//DTD SVG 1.1//EN" "http://www.w3.org/Graphics/SVG/1.1/DTD/svg11.dtd">
<svg version="1.1" id="Layer_1" xmlns="http://www.w3.org/2000/svg" xmlns:xlink="http://www.w3.org/1999/xlink" x="0px" y="0px"
	 width="158.74px" height="246.61px" viewBox="0 0 158.74 246.61" enable-background="new 0 0 158.74 246.61" xml:space="preserve">
<path fill="#FFFFFF" d="M158.74,234.61c0,6.627-5.373,12-12,12H12c-6.628,0-12-5.373-12-12V12C0,5.373,5.372,0,12,0h134.74
	c6.627,0,12,5.373,12,12V234.61z"/>
<g>
	<g>
		<g>
			<defs>
				<path id="SVGID_1_" d="M46.075,37.226h66.59c13.564,0,24.563,10.997,24.563,24.563l0,0c0,13.566-10.998,24.563-24.563,24.563
					h-66.59c-13.564,0-24.563-10.997-24.563-24.563l0,0C21.513,48.223,32.511,37.226,46.075,37.226z"/>
			</defs>
			<clipPath id="SVGID_2_">
				<use xlink:href="#SVGID_1_"  overflow="visible"/>
			</clipPath>
			<g clip-path="url(#SVGID_2_)">
				<line fill="none" stroke="#F43A45" stroke-width="2" stroke-miterlimit="10" x1="20.37" y1="20.637" x2="20.37" y2="102.942"/>
				
					<line fill="none" stroke="#F43A45" stroke-width="2" stroke-miterlimit="10" x1="26.271" y1="20.637" x2="26.271" y2="102.942"/>
				<line fill="none" stroke="#F43A45" stroke-width="2" stroke-miterlimit="10" x1="32.17" y1="20.637" x2="32.17" y2="102.942"/>
				<line fill="none" stroke="#F43A45" stroke-width="2" stroke-miterlimit="10" x1="38.07" y1="20.637" x2="38.07" y2="102.942"/>
				<line fill="none" stroke="#F43A45" stroke-width="2" stroke-miterlimit="10" x1="43.97" y1="20.637" x2="43.97" y2="102.942"/>
				<line fill="none" stroke="#F43A45" stroke-width="2" stroke-miterlimit="10" x1="49.87" y1="20.637" x2="49.87" y2="102.942"/>
				
					<line fill="none" stroke="#F43A45" stroke-width="2" stroke-miterlimit="10" x1="55.771" y1="20.637" x2="55.771" y2="102.942"/>
				<line fill="none" stroke="#F43A45" stroke-width="2" stroke-miterlimit="10" x1="67.57" y1="20.637" x2="67.57" y2="102.942"/>
				<line fill="none" stroke="#F43A45" stroke-width="2" stroke-miterlimit="10" x1="61.67" y1="20.637" x2="61.67" y2="102.942"/>
				<line fill="none" stroke="#F43A45" stroke-width="2" stroke-miterlimit="10" x1="73.47" y1="20.637" x2="73.47" y2="102.942"/>
				<line fill="none" stroke="#F43A45" stroke-width="2" stroke-miterlimit="10" x1="79.37" y1="20.637" x2="79.37" y2="102.942"/>
				
					<line fill="none" stroke="#F43A45" stroke-width="2" stroke-miterlimit="10" x1="85.271" y1="20.637" x2="85.271" y2="102.942"/>
				<line fill="none" stroke="#F43A45" stroke-width="2" stroke-miterlimit="10" x1="91.17" y1="20.637" x2="91.17" y2="102.942"/>
				<line fill="none" stroke="#F43A45" stroke-width="2" stroke-miterlimit="10" x1="97.07" y1="20.637" x2="97.07" y2="102.942"/>
				
					<line fill="none" stroke="#F43A45" stroke-width="2" stroke-miterlimit="10" x1="102.97" y1="20.637" x2="102.97" y2="102.942"/>
				
					<line fill="none" stroke="#F43A45" stroke-width="2" stroke-miterlimit="10" x1="114.771" y1="20.637" x2="114.771" y2="102.942"/>
				
					<line fill="none" stroke="#F43A45" stroke-width="2" stroke-miterlimit="10" x1="108.87" y1="20.637" x2="108.87" y2="102.942"/>
				
					<line fill="none" stroke="#F43A45" stroke-width="2" stroke-miterlimit="10" x1="120.67" y1="20.637" x2="120.67" y2="102.942"/>
				
					<line fill="none" stroke="#F43A45" stroke-width="2" stroke-miterlimit="10" x1="126.57" y1="20.637" x2="126.57" y2="102.942"/>
				
					<line fill="none" stroke="#F43A45" stroke-width="2" stroke-miterlimit="10" x1="132.47" y1="20.637" x2="132.47" y2="102.942"/>
				
					<line fill="none" stroke="#F43A45" stroke-width="2" stroke-miterlimit="10" x1="138.37" y1="20.637" x2="138.37" y2="102.942"/>
			</g>
			<use xlink:href="#SVGID_1_"  overflow="visible" fill="none" stroke="#F43A45" stroke-miterlimit="10"/>
		</g>
		<path fill="none" stroke="#F43A45" stroke-width="3" stroke-linejoin="round" stroke-miterlimit="10" d="M46.075,37.226h66.59
			c13.564,0,24.563,10.997,24.563,24.563l0,0c0,13.566-10.998,24.563-24.563,24.563h-66.59c-13.564,0-24.563-10.997-24.563-24.563
			l0,0C21.513,48.223,32.511,37.226,46.075,37.226z"/>
	</g>
	<g>
		<g>
			<defs>
				<path id="SVGID_3_" d="M46.075,98.742h66.59c13.564,0,24.563,10.997,24.563,24.563l0,0c0,13.566-10.998,24.563-24.563,24.563
					h-66.59c-13.564,0-24.563-10.997-24.563-24.563l0,0C21.513,109.739,32.511,98.742,46.075,98.742z"/>
			</defs>
			<clipPath id="SVGID_4_">
				<use xlink:href="#SVGID_3_"  overflow="visible"/>
			</clipPath>
			<g clip-path="url(#SVGID_4_)">
				<line fill="none" stroke="#F43A45" stroke-width="2" stroke-miterlimit="10" x1="20.37" y1="82.153" x2="20.37" y2="164.458"/>
				
					<line fill="none" stroke="#F43A45" stroke-width="2" stroke-miterlimit="10" x1="26.271" y1="82.153" x2="26.271" y2="164.458"/>
				<line fill="none" stroke="#F43A45" stroke-width="2" stroke-miterlimit="10" x1="32.17" y1="82.153" x2="32.17" y2="164.458"/>
				<line fill="none" stroke="#F43A45" stroke-width="2" stroke-miterlimit="10" x1="38.07" y1="82.153" x2="38.07" y2="164.458"/>
				<line fill="none" stroke="#F43A45" stroke-width="2" stroke-miterlimit="10" x1="43.97" y1="82.153" x2="43.97" y2="164.458"/>
				<line fill="none" stroke="#F43A45" stroke-width="2" stroke-miterlimit="10" x1="49.87" y1="82.153" x2="49.87" y2="164.458"/>
				
					<line fill="none" stroke="#F43A45" stroke-width="2" stroke-miterlimit="10" x1="55.771" y1="82.153" x2="55.771" y2="164.458"/>
				<line fill="none" stroke="#F43A45" stroke-width="2" stroke-miterlimit="10" x1="67.57" y1="82.153" x2="67.57" y2="164.458"/>
				<line fill="none" stroke="#F43A45" stroke-width="2" stroke-miterlimit="10" x1="61.67" y1="82.153" x2="61.67" y2="164.458"/>
				<line fill="none" stroke="#F43A45" stroke-width="2" stroke-miterlimit="10" x1="73.47" y1="82.153" x2="73.47" y2="164.458"/>
				<line fill="none" stroke="#F43A45" stroke-width="2" stroke-miterlimit="10" x1="79.37" y1="82.153" x2="79.37" y2="164.458"/>
				
					<line fill="none" stroke="#F43A45" stroke-width="2" stroke-miterlimit="10" x1="85.271" y1="82.153" x2="85.271" y2="164.458"/>
				<line fill="none" stroke="#F43A45" stroke-width="2" stroke-miterlimit="10" x1="91.17" y1="82.153" x2="91.17" y2="164.458"/>
				<line fill="none" stroke="#F43A45" stroke-width="2" stroke-miterlimit="10" x1="97.07" y1="82.153" x2="97.07" y2="164.458"/>
				
					<line fill="none" stroke="#F43A45" stroke-width="2" stroke-miterlimit="10" x1="102.97" y1="82.153" x2="102.97" y2="164.458"/>
				
					<line fill="none" stroke="#F43A45" stroke-width="2" stroke-miterlimit="10" x1="114.771" y1="82.153" x2="114.771" y2="164.458"/>
				
					<line fill="none" stroke="#F43A45" stroke-width="2" stroke-miterlimit="10" x1="108.87" y1="82.153" x2="108.87" y2="164.458"/>
				
					<line fill="none" stroke="#F43A45" stroke-width="2" stroke-miterlimit="10" x1="120.67" y1="82.153" x2="120.67" y2="164.458"/>
				
					<line fill="none" stroke="#F43A45" stroke-width="2" stroke-miterlimit="10" x1="126.57" y1="82.153" x2="126.57" y2="164.458"/>
				
					<line fill="none" stroke="#F43A45" stroke-width="2" stroke-miterlimit="10" x1="132.47" y1="82.153" x2="132.47" y2="164.458"/>
				
					<line fill="none" stroke="#F43A45" stroke-width="2" stroke-miterlimit="10" x1="138.37" y1="82.153" x2="138.37" y2="164.458"/>
			</g>
			<use xlink:href="#SVGID_3_"  overflow="visible" fill="none" stroke="#F43A45" stroke-miterlimit="10"/>
		</g>
		<path fill="none" stroke="#F43A45" stroke-width="3" stroke-linejoin="round" stroke-miterlimit="10" d="M46.075,98.742h66.59
			c13.564,0,24.563,10.997,24.563,24.563l0,0c0,13.566-10.998,24.563-24.563,24.563h-66.59c-13.564,0-24.563-10.997-24.563-24.563
			l0,0C21.513,109.739,32.511,98.742,46.075,98.742z"/>
	</g>
	<g>
		<g>
			<defs>
				<path id="SVGID_5_" d="M46.075,160.259h66.59c13.564,0,24.563,10.996,24.563,24.563l0,0c0,13.566-10.998,24.563-24.563,24.563
					h-66.59c-13.564,0-24.563-10.996-24.563-24.563l0,0C21.513,171.255,32.511,160.259,46.075,160.259z"/>
			</defs>
			<clipPath id="SVGID_6_">
				<use xlink:href="#SVGID_5_"  overflow="visible"/>
			</clipPath>
			<g clip-path="url(#SVGID_6_)">
				<line fill="none" stroke="#F43A45" stroke-width="2" stroke-miterlimit="10" x1="20.37" y1="143.669" x2="20.37" y2="225.974"/>
				
					<line fill="none" stroke="#F43A45" stroke-width="2" stroke-miterlimit="10" x1="26.271" y1="143.669" x2="26.271" y2="225.974"/>
				<line fill="none" stroke="#F43A45" stroke-width="2" stroke-miterlimit="10" x1="32.17" y1="143.669" x2="32.17" y2="225.974"/>
				<line fill="none" stroke="#F43A45" stroke-width="2" stroke-miterlimit="10" x1="38.07" y1="143.669" x2="38.07" y2="225.974"/>
				<line fill="none" stroke="#F43A45" stroke-width="2" stroke-miterlimit="10" x1="43.97" y1="143.669" x2="43.97" y2="225.974"/>
				<line fill="none" stroke="#F43A45" stroke-width="2" stroke-miterlimit="10" x1="49.87" y1="143.669" x2="49.87" y2="225.974"/>
				
					<line fill="none" stroke="#F43A45" stroke-width="2" stroke-miterlimit="10" x1="55.771" y1="143.669" x2="55.771" y2="225.974"/>
				<line fill="none" stroke="#F43A45" stroke-width="2" stroke-miterlimit="10" x1="67.57" y1="143.669" x2="67.57" y2="225.974"/>
				<line fill="none" stroke="#F43A45" stroke-width="2" stroke-miterlimit="10" x1="61.67" y1="143.669" x2="61.67" y2="225.974"/>
				<line fill="none" stroke="#F43A45" stroke-width="2" stroke-miterlimit="10" x1="73.47" y1="143.669" x2="73.47" y2="225.974"/>
				<line fill="none" stroke="#F43A45" stroke-width="2" stroke-miterlimit="10" x1="79.37" y1="143.669" x2="79.37" y2="225.974"/>
				
					<line fill="none" stroke="#F43A45" stroke-width="2" stroke-miterlimit="10" x1="85.271" y1="143.669" x2="85.271" y2="225.974"/>
				<line fill="none" stroke="#F43A45" stroke-width="2" stroke-miterlimit="10" x1="91.17" y1="143.669" x2="91.17" y2="225.974"/>
				<line fill="none" stroke="#F43A45" stroke-width="2" stroke-miterlimit="10" x1="97.07" y1="143.669" x2="97.07" y2="225.974"/>
				
					<line fill="none" stroke="#F43A45" stroke-width="2" stroke-miterlimit="10" x1="102.97" y1="143.669" x2="102.97" y2="225.974"/>
				
					<line fill="none" stroke="#F43A45" stroke-width="2" stroke-miterlimit="10" x1="114.771" y1="143.669" x2="114.771" y2="225.974"/>
				
					<line fill="none" stroke="#F43A45" stroke-width="2" stroke-miterlimit="10" x1="108.87" y1="143.669" x2="108.87" y2="225.974"/>
				
					<line fill="none" stroke="#F43A45" stroke-width="2" stroke-miterlimit="10" x1="120.67" y1="143.669" x2="120.67" y2="225.974"/>
				
					<line fill="none" stroke="#F43A45" stroke-width="2" stroke-miterlimit="10" x1="126.57" y1="143.669" x2="126.57" y2="225.974"/>
				
					<line fill="none" stroke="#F43A45" stroke-width="2" stroke-miterlimit="10" x1="132.47" y1="143.669" x2="132.47" y2="225.974"/>
				
					<line fill="none" stroke="#F43A45" stroke-width="2" stroke-miterlimit="10" x1="138.37" y1="143.669" x2="138.37" y2="225.974"/>
			</g>
			<use xlink:href="#SVGID_5_"  overflow="visible" fill="none" stroke="#F43A45" stroke-miterlimit="10"/>
		</g>
		<path fill="none" stroke="#F43A45" stroke-width="3" stroke-linejoin="round" stroke-miterlimit="10" d="M46.075,160.259h66.59
			c13.564,0,24.563,10.996,24.563,24.563l0,0c0,13.566-10.998,24.563-24.563,24.563h-66.59c-13.564,0-24.563-10.996-24.563-24.563
			l0,0C21.513,171.255,32.511,160.259,46.075,160.259z"/>
	</g>
</g>
</svg>
