<?xml version="1.0" encoding="utf-8"?>
<!-- Generator: Adobe Illustrator 16.0.0, SVG Export Plug-In . SVG Version: 6.00 Build 0)  -->
<!DOCTYPE svg PUBLIC "-//W3C//DTD SVG 1.1//EN" "http://www.w3.org/Graphics/SVG/1.1/DTD/svg11.dtd">
<svg version="1.1" id="Layer_1" xmlns="http://www.w3.org/2000/svg" xmlns:xlink="http://www.w3.org/1999/xlink" x="0px" y="0px"
	 width="158.74px" height="246.61px" viewBox="0 0 158.74 246.61" enable-background="new 0 0 158.74 246.61" xml:space="preserve">
<path fill="#FFFFFF" d="M158.74,234.61c0,6.627-5.373,12-12,12H12c-6.628,0-12-5.373-12-12V12C0,5.372,5.372,0,12,0h134.74
	c6.627,0,12,5.373,12,12V234.61z"/>
<g>
	<path fill-rule="evenodd" clip-rule="evenodd" fill="#F43A45" d="M60.803,67.111c6.429-0.289,13.038,0.185,18.566,2.896
		c12.197,5.981,23.225,3.647,34.295-2.12c13.496-7.03,22.264-2.649,23.342,11.569c1.773,23.32-16.726,37.591-42.027,32.375
		c-2.641-0.544-5.376-1.083-7.764-2.167c-17.073-7.741-33.256-8.073-49.373,2.664c-7.07,4.71-13.802,0.654-15.662-8.258
		c-3.665-17.555,10.996-34.855,31.374-36.926C55.939,66.902,58.385,67.111,60.803,67.111z"/>
	<path fill-rule="evenodd" clip-rule="evenodd" fill="#F43A45" d="M60.803,134.819c6.429-0.289,13.038,0.184,18.566,2.896
		c12.197,5.98,23.225,3.646,34.295-2.121c13.496-7.029,22.264-2.648,23.342,11.57c1.773,23.32-16.726,37.591-42.027,32.374
		c-2.641-0.544-5.376-1.083-7.764-2.167c-17.073-7.74-33.256-8.072-49.373,2.664c-7.07,4.711-13.802,0.654-15.662-8.258
		c-3.665-17.555,10.996-34.855,31.374-36.926C55.939,134.61,58.385,134.819,60.803,134.819z"/>
</g>
</svg>
